<svg height="173" viewBox="0 0 154 173" width="154" xmlns="http://www.w3.org/2000/svg" xmlns:xlink="http://www.w3.org/1999/xlink"><defs><radialGradient id="a" cx="50%" cy="50%" gradientTransform="matrix(0 .885437 -1 0 1 .057281)" r="85.102001%"><stop offset="0" stop-color="#d0deff"/><stop offset="1"/></radialGradient><path id="b" d="m62.152 61.944h8l1.2187621-.0029025c3.7812838-.0183823 6.8203375-.1240807 9.1172379-.3170975 2.5386794-.2133344 4.5013264-.490665 5.888-.832s2.3146643-.7253312 2.784-1.152.7893325-.8533312.96-1.28c.0853338-.2133344.298665-.32.64-.32.4266688 0 .64.1066656.64.32-.0663707.0663707-.1650037.2746981-.2959009.6249866l-.8240991 2.3510134c-.2218678.6314698-.4505595 1.3038917-.6860796 2.0172786l-.1779204.5427214c-.2986682.9173379-.5759987 1.7919958-.832 2.624-.2133344.6933368-.3970368 1.3199989-.5511109 1.8799992l-.0888891.3280008c-.1706675.6400032-.256 1.0666656-.256 1.28-.0568892 0-.1232592.0047407-.1991109.0142222l-.1208891.0177778c-.1280006.0213334-.2559994.032-.384.032-.3840019 0-.576-.1279987-.576-.384 0-.1600008.0119999-.3439996.0359999-.5519995l.0280001-.2160005c.0426669-.2986682.064-.5546656.064-.768s-.0213331-.3626662-.064-.448c-.2133344-.4266688-.9279939-.7466656-2.144-.96s-2.623992-.3626662-4.224-.448c-1.200006-.0640003-2.4179983-.1100001-3.6539976-.138l-1.2420024-.022c-1.6640083-.0213334-3.029328-.032-4.096-.032-1.6213414 0-3.231992.4586621-4.832 1.376s-3.029327 2.2293248-4.288 3.936-2.2826627 3.8079875-3.072 6.304-1.184 5.3226509-1.184 8.48c0 2.7733472.3093302 5.3333216.928 7.68s1.5039942 4.3946579 2.656 6.144c1.1520058 1.749342 2.5599917 3.114662 4.224 4.096s3.5413229 1.472 5.632 1.472c2.0053434 0 3.7653258-.37333 5.28-1.12s2.7839949-1.717327 3.808-2.912 1.802664-2.5599923 2.336-4.096.8-3.1146586.8-4.736c0-1.1520058-.1386653-2.261328-.416-3.328s-.6933306-2.0159958-1.248-2.848-1.269329-1.4933309-2.144-1.984-1.8879942-.736-3.04-.736c-1.792009 0-3.050663.3946627-3.776 1.184s-1.088 1.6319955-1.088 2.528c0 .8106707.2346643 1.5253302.704 2.144.4302244.5671139.9859231.8742968 1.6671103.9215556l.1888897.0064444c.4693357 0 .704.170665.704.512 0 .1280006-.0639994.2559994-.192.384-.2133344.2986682-.8106618.5973318-1.792.896s-2.1546598.448-3.52.448c-1.6640083 0-3.029328-.437329-4.096-1.312s-1.6-1.9306605-1.6-3.168c0-.8106707.3839962-1.5999962 1.152-2.368s1.8239933-1.4613302 3.168-2.08 2.9546573-1.1093315 4.832-1.472 3.9039891-.544 6.08-.544c1.9200096 0 3.6906586.1919981 5.312.576s3.0186608.9279965 4.192 1.632 2.1013299 1.5573283 2.784 2.56 1.024 2.1226605 1.024 3.36c0 1.8773427-.5973274 3.8719894-1.792 5.984s-2.8373229 4.053324-4.928 5.824-4.5546525 3.231994-7.392 4.384-5.8773171 1.728-9.12 1.728c-3.3280166 0-6.2826538-.479995-8.864-1.44s-4.7573245-2.303991-6.528-4.032-3.1253286-3.7759882-4.064-6.144-1.408-4.9599859-1.408-7.776c0-2.133344.3199968-4.1386573.96-6.016s1.4719949-3.6266586 2.496-5.248 2.1546605-3.0933267 3.392-4.416 2.4426608-2.4639952 3.616-3.424 2.2506618-1.7173306 3.232-2.272 1.7066643-.8959994 2.176-1.024l-1.4826681.0497778c-1.0097759.0379258-2.0622153.085333-3.1573319.1422222-1.6426749.0853338-3.2106592.2026659-4.704.352s-2.8159942.3413322-3.968.576-1.9413312.522665-2.368.864c-.4693357.341335-.8533318.7893306-1.152 1.344s-.5546656 1.1306637-.768 1.728c-.341335 0-.6186656-.0533328-.832-.16s-.3839994-.3519981-.512-.736c.3840019-.5120026.7999978-1.3226611 1.248-2.432s.8959978-2.2719939 1.344-3.488c.3200016-.8685758.607347-1.6881631.8620405-2.4587743l.6165872-1.9218192c.1514791-.4584768.2666027-.7796107.3453723-.9634065.1706675-.0853338.3626656-.128.576-.128.1706675 0 .3413325.0426662.512.128-.1280006.5120026-.192.9173318-.192 1.216 0 .4266688.2133312.7039994.64.832 1.2373395.341335 2.7839907.5653328 4.64.672l1.040928.0528928c1.6042316.0714051 3.4012439.1071072 5.391072.1071072z"/></defs><g fill="none" fill-rule="evenodd"><path d="m19.8658677 171.256671c202.8215593-71.279664 74.8824169-30.531296 79.2474937-76.335299 2.0852916-21.8815623 80.0116186 2.1055329 45.0722706-28.0534825-108.0768128-93.289957-178.6071485-71.60621218-126.685632-38.4832769 51.9215165 33.1229353-47.9059772 160.5396084 2.3658677 142.8720584z" fill="url(#a)"/><g fill-rule="nonzero"><use fill="#f9f9f9" xlink:href="#b"/><use fill="#fff" xlink:href="#b"/></g></g></svg>